<?xml version="1.0" encoding="UTF-8" standalone="no"?>
<!DOCTYPE svg PUBLIC "-//W3C//DTD SVG 1.1//EN" "http://www.w3.org/Graphics/SVG/1.1/DTD/svg11.dtd">
<svg width="100%" height="100%" viewBox="0 0 167 167" version="1.1" xmlns="http://www.w3.org/2000/svg" xmlns:xlink="http://www.w3.org/1999/xlink" xml:space="preserve" xmlns:serif="http://www.serif.com/" style="fill-rule:evenodd;clip-rule:evenodd;stroke-linejoin:round;stroke-miterlimit:2;">
    <g transform="matrix(1,0,0,1,-2389.82,-3635)">
        <g>
            <g transform="matrix(4.89215,-5.43138e-16,-3.7697e-16,4.89215,-5823.9,3405.26)">
                <path d="M1696,80C1696,71.169 1688.83,64 1680,64C1680,72.831 1687.17,80 1696,80" style="fill:white;stroke:white;stroke-width:2.08px;stroke-linecap:round;stroke-miterlimit:1.5;"/>
            </g>
            <g transform="matrix(4.89215,-5.43138e-16,-3.7697e-16,4.89215,-5823.9,3405.26)">
                <path d="M1712,64C1712,72.831 1704.83,80 1696,80C1696,71.169 1703.17,64 1712,64" style="fill:white;stroke:white;stroke-width:2.08px;stroke-linecap:round;stroke-miterlimit:1.5;"/>
            </g>
            <g transform="matrix(-4.89215,0,0,4.89215,6504.32,2935.61)">
                <path d="M818.345,146.345C821.467,143.223 826.536,143.223 829.658,146.345C832.781,149.467 832.781,154.536 829.658,157.658C826.536,160.781 821.467,160.781 818.345,157.658L812.688,152.002L818.345,146.345" style="fill:none;stroke:white;stroke-width:2.08px;stroke-linecap:round;stroke-miterlimit:1.5;"/>
            </g>
            <g transform="matrix(2.44608,0,0,2.4456,1279.51,3307.49)">
                <ellipse cx="488" cy="152.002" rx="8" ry="8.002" style="fill:white;"/>
            </g>
        </g>
    </g>
</svg>
